<svg width="60" height="60" viewBox="0 0 60 60" fill="none" xmlns="http://www.w3.org/2000/svg">
<path fill-rule="evenodd" clip-rule="evenodd" d="M42 34C42 42.8366 34.8366 50 26 50C23.529 50 21.1888 49.4399 19.0995 48.4396C18.3814 48.0958 17.5679 47.9751 16.7988 48.1809L14.3467 48.837C12.414 49.3541 10.6459 47.586 11.163 45.6533L11.8191 43.2012C12.0249 42.4321 11.9042 41.6186 11.5604 40.9005C10.5602 38.8112 10 36.471 10 34C10 25.1634 17.1634 18 26 18C34.8366 18 42 25.1634 42 34ZM19 36C20.1046 36 21 35.1046 21 34C21 32.8954 20.1046 32 19 32C17.8954 32 17 32.8954 17 34C17 35.1046 17.8954 36 19 36ZM26 36C27.1046 36 28 35.1046 28 34C28 32.8954 27.1046 32 26 32C24.8954 32 24 32.8954 24 34C24 35.1046 24.8954 36 26 36ZM33 36C34.1046 36 35 35.1046 35 34C35 32.8954 34.1046 32 33 32C31.8954 32 31 32.8954 31 34C31 35.1046 31.8954 36 33 36Z" fill="#6F6F74"/>
<path opacity="0.6" d="M41.9685 35.0169C42.1843 34.9276 42.3972 34.8326 42.6069 34.7322C43.1904 34.4528 43.8514 34.3548 44.4763 34.522L46.4686 35.055C48.0389 35.4752 49.4755 34.0386 49.0553 32.4683L48.5223 30.476C48.3551 29.8511 48.4531 29.1901 48.7325 28.6066C49.5452 26.9091 50.0003 25.0077 50.0003 23C50.0003 15.8203 44.18 10 37.0003 10C31.5802 10 26.9348 13.317 24.9834 18.0318C25.3196 18.0107 25.6587 18 26.0003 18C34.8368 18 42.0003 25.1634 42.0003 34C42.0003 34.3416 41.9896 34.6806 41.9685 35.0169Z" fill="#6F6F74"/>
</svg>
