<svg width="16" height="16" viewBox="0 0 16 16" fill="none" xmlns="http://www.w3.org/2000/svg">
<path d="M10.9921 7.3796C11.2017 7.19989 11.226 6.88424 11.0463 6.67457C10.8666 6.46491 10.5509 6.44063 10.3413 6.62034L10.9921 7.3796ZM7.33333 9.85711L7.00794 10.2367C7.19518 10.3972 7.47148 10.3972 7.65873 10.2367L7.33333 9.85711ZM4.3254 6.62034C4.11573 6.44063 3.80008 6.46491 3.62037 6.67457C3.44066 6.88424 3.46494 7.19989 3.6746 7.3796L4.3254 6.62034ZM10.3413 6.62034L7.00794 9.47748L7.65873 10.2367L10.9921 7.3796L10.3413 6.62034ZM7.65873 9.47748L4.3254 6.62034L3.6746 7.3796L7.00794 10.2367L7.65873 9.47748Z" fill="#6F6F74"/>
</svg>
