<svg width="24" height="24" viewBox="0 0 24 24" fill="none" xmlns="http://www.w3.org/2000/svg">
<path fill-rule="evenodd" clip-rule="evenodd" d="M4.05548 6.60671C4 6.90076 4 7.25377 4 7.9598V9.8H19.9625C19.9047 8.96094 19.7578 8.41021 19.3844 7.99506C19.3278 7.93211 19.2679 7.87219 19.2049 7.81557C18.5205 7.2 17.4676 7.2 15.3617 7.2H15.0627C14.1398 7.2 13.6783 7.2 13.2483 7.07742C13.012 7.01008 12.7844 6.91577 12.5697 6.79634C12.1789 6.57894 11.8526 6.25262 11.2 5.6L10.7598 5.1598C10.5411 4.94106 10.4317 4.83169 10.3168 4.73641C9.82122 4.32563 9.21332 4.07383 8.57246 4.0139C8.42381 4 8.26914 4 7.9598 4C7.25377 4 6.90076 4 6.60671 4.05548C5.31225 4.29971 4.29971 5.31225 4.05548 6.60671ZM19.9982 11H4V13.6C4 16.617 4 18.1255 4.93726 19.0627C5.87452 20 7.38301 20 10.4 20H13.6C16.617 20 18.1255 20 19.0627 19.0627C20 18.1255 20 16.617 20 13.6V11.8383C20 11.5382 19.9982 11 19.9982 11Z" fill="#6F6F74"/>
</svg>
