<svg width="24" height="24" viewBox="0 0 24 24" fill="none" xmlns="http://www.w3.org/2000/svg">
<path fill-rule="evenodd" clip-rule="evenodd" d="M13.5164 4.102C13.9252 4.48746 14.1549 5.01025 14.1549 5.55537V11.7215C14.1549 12.2666 13.9252 12.7894 13.5164 13.1748C13.1075 13.5603 12.5531 13.7768 11.9749 13.7768C11.3967 13.7768 10.8423 13.5603 10.4334 13.1748C10.0246 12.7894 9.79495 12.2666 9.79495 11.7215V5.55537C9.79495 5.01025 10.0246 4.48746 10.4334 4.102C10.8423 3.71655 11.3967 3.5 11.9749 3.5C12.5531 3.5 13.1075 3.71655 13.5164 4.102ZM6.52528 11.1922C6.81754 11.1922 7.05447 11.4291 7.05447 11.7214C7.05447 12.9334 7.56486 14.1026 8.48454 14.9698C9.40529 15.8379 10.6604 16.3306 11.9752 16.3306C13.2899 16.3306 14.5451 15.8379 15.4658 14.9698C16.3855 14.1026 16.8959 12.9334 16.8959 11.7214C16.8959 11.4291 17.1328 11.1922 17.4251 11.1922C17.7173 11.1922 17.9543 11.4291 17.9543 11.7214C17.9543 13.2349 17.3163 14.6797 16.1919 15.7398C15.195 16.6797 13.8879 17.2502 12.5048 17.3667V20.9708C12.5048 21.2631 12.2679 21.5 11.9756 21.5C11.6833 21.5 11.4464 21.2631 11.4464 20.9708V17.3668C10.063 17.2504 8.75558 16.6799 7.75849 15.7398C6.63407 14.6797 5.99609 13.2349 5.99609 11.7214C5.99609 11.4291 6.23302 11.1922 6.52528 11.1922Z" fill="white"/>
</svg>
