<svg width="24" height="24" viewBox="0 0 24 24" fill="none" xmlns="http://www.w3.org/2000/svg">
<path d="M3 6.5625C3 5.838 3.588 5.25 4.3125 5.25H19.6875C20.412 5.25 21 5.838 21 6.5625V17.4375C21 17.7856 20.8617 18.1194 20.6156 18.3656C20.3694 18.6117 20.0356 18.75 19.6875 18.75H4.3125C3.9644 18.75 3.63056 18.6117 3.38442 18.3656C3.13828 18.1194 3 17.7856 3 17.4375V6.5625ZM4.3125 6.375C4.26277 6.375 4.21508 6.39475 4.17992 6.42992C4.14475 6.46508 4.125 6.51277 4.125 6.5625V17.4375C4.125 17.541 4.209 17.625 4.3125 17.625H19.6875C19.7372 17.625 19.7849 17.6052 19.8201 17.5701C19.8552 17.5349 19.875 17.4872 19.875 17.4375V6.5625C19.875 6.51277 19.8552 6.46508 19.8201 6.42992C19.7849 6.39475 19.7372 6.375 19.6875 6.375H4.3125Z" fill="#6F6F74"/>
<path d="M9.75 14.6881V9.31212C9.75011 9.24486 9.76831 9.17886 9.8027 9.12105C9.83708 9.06324 9.88638 9.01574 9.94543 8.98353C10.0045 8.95132 10.0711 8.93559 10.1383 8.93798C10.2055 8.94037 10.2709 8.9608 10.3275 8.99712L14.5095 11.6844C14.5625 11.7183 14.606 11.765 14.6362 11.8202C14.6664 11.8754 14.6822 11.9372 14.6822 12.0001C14.6822 12.063 14.6664 12.1249 14.6362 12.1801C14.606 12.2352 14.5625 12.2819 14.5095 12.3159L10.3275 15.0039C10.2709 15.0402 10.2055 15.0606 10.1383 15.063C10.0711 15.0654 10.0045 15.0497 9.94543 15.0175C9.88638 14.9852 9.83708 14.9377 9.8027 14.8799C9.76831 14.8221 9.75011 14.7561 9.75 14.6889V14.6881Z" fill="#6F6F74"/>
</svg>
