<svg width="24" height="24" viewBox="0 0 24 24" fill="none" xmlns="http://www.w3.org/2000/svg">
<g clip-path="url(#clip0_2_1011)">
<path d="M3 12C3 7.75736 3 5.63604 4.31802 4.31802C5.63604 3 7.75736 3 12 3C16.2426 3 18.364 3 19.682 4.31802C21 5.63604 21 7.75736 21 12C21 16.2426 21 18.364 19.682 19.682C18.364 21 16.2426 21 12 21C7.75736 21 5.63604 21 4.31802 19.682C3 18.364 3 16.2426 3 12Z" stroke="#6F6F74" stroke-width="1.5"/>
<circle cx="15.6001" cy="8.40001" r="1.8" stroke="#6F6F74" stroke-width="1.5"/>
<path d="M5.18948 12.6268C4.88598 12.9087 4.86847 13.3833 5.15036 13.6868C5.43225 13.9903 5.9068 14.0078 6.2103 13.7259L5.18948 12.6268ZM6.42935 12.4988L6.93975 13.0484L6.93975 13.0484L6.42935 12.4988ZM9.34478 12.5961L8.79887 13.1104L9.34478 12.5961ZM11.7275 15.1254L11.1816 15.6397L11.7275 15.1254ZM16.2589 15.4501L16.7769 14.9078H16.7769L16.2589 15.4501ZM17.7818 17.9423C18.0813 18.2285 18.5561 18.2176 18.8422 17.9181C19.1283 17.6186 19.1175 17.1439 18.818 16.8577L17.7818 17.9423ZM13.571 15.2865L13.1225 14.6853V14.6853L13.571 15.2865ZM6.2103 13.7259L6.93975 13.0484L5.91894 11.9493L5.18948 12.6268L6.2103 13.7259ZM8.79887 13.1104L11.1816 15.6397L12.2734 14.6111L9.89069 12.0818L8.79887 13.1104ZM15.7408 15.9924L17.7818 17.9423L18.818 16.8577L16.7769 14.9078L15.7408 15.9924ZM14.0195 15.8876C14.5419 15.4978 15.2694 15.5421 15.7408 15.9924L16.7769 14.9078C15.7763 13.9519 14.2318 13.8578 13.1225 14.6853L14.0195 15.8876ZM11.1816 15.6397C11.9273 16.4312 13.1479 16.5378 14.0195 15.8876L13.1225 14.6853C12.8617 14.8799 12.4965 14.848 12.2734 14.6111L11.1816 15.6397ZM6.93975 13.0484C7.47124 12.5547 8.30148 12.5824 8.79887 13.1104L9.89069 12.0818C8.82808 10.9539 7.05439 10.8947 5.91894 11.9493L6.93975 13.0484Z" fill="#6F6F74"/>
</g>
<defs>
<clipPath id="clip0_2_1011">
<rect width="24" height="24" fill="white"/>
</clipPath>
</defs>
</svg>
