<svg width="24" height="24" viewBox="0 0 24 24" fill="none" xmlns="http://www.w3.org/2000/svg">
<path d="M21.1426 13.1434V16.572C21.1426 18.0577 17.5609 20.0005 13.1426 20.0005C8.72435 20.0005 5.14264 18.0577 5.14264 16.572V13.7148" stroke="white" stroke-width="0.5" stroke-linecap="round" stroke-linejoin="round"/>
<path d="M5.47864 14.0106C6.46721 15.3226 9.52435 16.5535 13.1426 16.5535C17.5609 16.5535 21.1426 14.7181 21.1426 13.1409C21.1426 12.2552 20.0146 11.2849 18.2444 10.6038" stroke="white" stroke-width="0.5" stroke-linecap="round" stroke-linejoin="round"/>
<path d="M17.7141 7.42874V10.8573C17.7141 12.343 14.1324 14.2859 9.71411 14.2859C5.29583 14.2859 1.71411 12.343 1.71411 10.8573V7.42874" stroke="white" stroke-width="0.5" stroke-linecap="round" stroke-linejoin="round"/>
<path fill-rule="evenodd" clip-rule="evenodd" d="M9.71411 10.8391C14.1324 10.8391 17.7141 9.0037 17.7141 7.42656C17.7141 5.84827 14.1324 4.00027 9.71411 4.00027C5.29583 4.00027 1.71411 5.84827 1.71411 7.42656C1.71411 9.0037 5.29583 10.8391 9.71411 10.8391Z" stroke="white" stroke-width="0.5" stroke-linecap="round" stroke-linejoin="round"/>
</svg>
