<svg width="40" height="41" viewBox="0 0 40 41" fill="none" xmlns="http://www.w3.org/2000/svg">
<path d="M32.1637 27.035C32.1655 27.0063 32.1655 26.9776 32.1637 26.949C32.1637 26.949 32.1637 26.933 32.1637 26.925L30.7959 10.7279C30.7924 10.7096 30.7878 10.6916 30.7819 10.6739C30.7819 10.6439 30.7679 10.6179 30.7579 10.5899C30.7457 10.5635 30.7303 10.5386 30.7119 10.5159C30.6984 10.4958 30.6837 10.4764 30.668 10.458C30.6437 10.4347 30.616 10.4151 30.586 10.4C30.5749 10.3896 30.5628 10.3802 30.55 10.372H30.53C30.5009 10.3614 30.4707 10.354 30.44 10.35C30.4134 10.3469 30.3866 10.3469 30.36 10.35H30.338C30.3203 10.3541 30.303 10.3595 30.286 10.366C30.2569 10.3704 30.2286 10.3791 30.202 10.392C30.1776 10.4028 30.1547 10.417 30.1341 10.434C30.1111 10.4484 30.0896 10.4652 30.0701 10.484C30.0505 10.5058 30.0337 10.53 30.0201 10.5559C30.0083 10.5705 29.9976 10.5858 29.9881 10.6019L24.889 21.9379L24.875 21.9739C24.7313 22.359 24.4826 22.6961 24.1571 22.947C23.8316 23.198 23.4423 23.3527 23.0333 23.3936C22.7522 23.4144 22.4697 23.3787 22.2026 23.2887C21.9354 23.1987 21.6889 23.0563 21.4776 22.8697C21.0148 22.4747 20.7272 21.9125 20.6778 21.306L20.5278 19.5223L19.16 3.32524C19.1283 2.91149 19.0152 2.50807 18.8271 2.13815C18.6391 1.76823 18.3798 1.4391 18.0642 1.16963C17.7652 0.912526 17.4179 0.717807 17.0425 0.596928C16.6672 0.476049 16.2715 0.431451 15.8786 0.465759C15.3125 0.519588 14.7728 0.731491 14.3213 1.07728C13.8698 1.42308 13.5246 1.88884 13.3251 2.42141L8.216 13.7514C8.216 13.7514 8.216 13.7674 8.216 13.7754C8.20723 13.8015 8.20054 13.8282 8.196 13.8553C8.18898 13.887 8.1843 13.919 8.18201 13.9513C8.18201 13.9513 8.18201 13.9653 8.18201 13.9753L9.54976 30.1724C9.5539 30.192 9.55924 30.2114 9.56576 30.2304C9.5703 30.2562 9.57699 30.2816 9.58575 30.3064C9.59796 30.3328 9.61341 30.3577 9.63175 30.3804C9.6446 30.4005 9.65862 30.4199 9.67374 30.4384C9.69821 30.4605 9.72503 30.48 9.75372 30.4963C9.76685 30.5081 9.78089 30.5188 9.79572 30.5283H9.80771C9.83851 30.5405 9.87078 30.5486 9.9037 30.5523C9.92569 30.5523 9.94569 30.5643 9.96768 30.5643H10.0077C10.0249 30.5619 10.0417 30.5571 10.0577 30.5503C10.0878 30.5447 10.1173 30.536 10.1457 30.5243C10.1683 30.5122 10.1904 30.4988 10.2116 30.4843C10.2343 30.468 10.2557 30.45 10.2756 30.4304C10.295 30.4091 10.3118 30.3856 10.3256 30.3604C10.3374 30.3459 10.3481 30.3305 10.3576 30.3144L15.4567 18.9784L15.4787 18.9504C15.6219 18.5653 15.8702 18.2279 16.1953 17.9766C16.5205 17.7253 16.9095 17.5702 17.3184 17.5287C17.5986 17.5051 17.8808 17.5373 18.1485 17.6235C18.4162 17.7096 18.6642 17.848 18.8781 18.0306C19.341 18.4247 19.6286 18.9864 19.6779 19.5923L20.7397 32.19L21.1937 37.5891C21.2588 38.4223 21.6522 39.1955 22.2875 39.7387C22.8241 40.1996 23.5078 40.4535 24.2151 40.4545C24.3031 40.4545 24.3931 40.4545 24.4831 40.4425C25.0493 40.387 25.5886 40.174 26.0399 39.8276C26.4912 39.4813 26.8365 39.0154 27.0366 38.4829L32.1397 27.1489C32.1397 27.1489 32.1397 27.1329 32.1397 27.125C32.1502 27.0957 32.1583 27.0656 32.1637 27.035ZM9.49177 19.4163L14.5449 8.18437L14.5589 8.15237C14.701 7.76668 14.949 7.42887 15.2744 7.17775C15.5998 6.92662 15.9894 6.77234 16.3985 6.73263C16.6817 6.70662 16.9672 6.73802 17.238 6.82495C17.5087 6.91188 17.7591 7.05255 17.9742 7.23854C18.2042 7.43349 18.3932 7.67204 18.5305 7.94042C18.6678 8.20881 18.7506 8.50172 18.7741 8.80226L19.048 12.0457C19.0261 12.0237 19.0041 12.0017 18.9801 11.9817C18.6793 11.7229 18.3296 11.5272 17.9518 11.4063C17.5739 11.2854 17.1756 11.2417 16.7805 11.2778C16.2143 11.3333 15.675 11.5464 15.2236 11.8927C14.7723 12.2391 14.427 12.7049 14.2269 13.2375L9.79972 23.0737L9.49177 19.4163ZM21.3136 28.8686C21.3376 28.8886 21.3576 28.9126 21.3816 28.9326C21.9175 29.3934 22.6005 29.6473 23.3073 29.6485C23.3973 29.6485 23.4872 29.6485 23.5772 29.6345C24.1432 29.5808 24.6826 29.3689 25.1338 29.023C25.585 28.6772 25.9298 28.2114 26.1288 27.6789L30.556 17.8346L30.8759 21.49L25.8128 32.7239L25.7988 32.7599C25.6555 33.1454 25.4069 33.4829 25.0814 33.7342C24.7558 33.9855 24.3664 34.1406 23.9572 34.1817C23.6743 34.207 23.3893 34.1752 23.119 34.0883C22.8487 34.0014 22.5986 33.8611 22.3834 33.6758C21.9207 33.2815 21.6331 32.7199 21.5836 32.1141L21.3136 28.8686ZM20.9257 23.5296C21.4618 23.9898 22.1448 24.243 22.8514 24.2435C22.9407 24.2435 23.0307 24.2395 23.1213 24.2315C23.6878 24.1761 24.2274 23.9631 24.6791 23.6168C25.1307 23.2704 25.4764 22.8045 25.6769 22.2718L30.1021 12.4296L30.412 16.0869L25.3569 27.3209L25.3429 27.3569C25.1995 27.7424 24.951 28.0799 24.6254 28.3312C24.2999 28.5825 23.9104 28.7375 23.5012 28.7787C23.2184 28.8039 22.9334 28.7722 22.6631 28.6853C22.3928 28.5984 22.1426 28.4581 21.9275 28.2727C21.4643 27.878 21.1767 27.3156 21.1277 26.709L20.8577 23.4656C20.8777 23.4856 20.9017 23.5096 20.9257 23.5296ZM14.0889 2.77934L14.1029 2.74335C14.2451 2.35765 14.493 2.01985 14.8185 1.76872C15.1439 1.51759 15.5335 1.36332 15.9426 1.3236C16.2256 1.29835 16.5107 1.32993 16.7813 1.41646C17.0519 1.503 17.3025 1.64275 17.5183 1.82751C17.7482 2.02299 17.9371 2.26192 18.0744 2.53061C18.2116 2.7993 18.2945 3.09244 18.3182 3.39323L18.5921 6.63465L18.5261 6.57266C18.2255 6.31379 17.8758 6.11806 17.4979 5.99714C17.12 5.87622 16.7216 5.83256 16.3265 5.86878C15.7602 5.92386 15.2207 6.1367 14.7693 6.48312C14.3179 6.82953 13.9727 7.29563 13.773 7.82843L9.3438 17.6707L9.03585 14.0133L14.0889 2.77934ZM19.43 17.3767C19.1289 17.1185 18.7791 16.9232 18.4014 16.8023C18.0236 16.6814 17.6254 16.6374 17.2304 16.6728C16.6651 16.7286 16.1266 16.9413 15.6758 17.2868C15.2249 17.6324 14.8796 18.0971 14.6788 18.6285L10.2556 28.4687L9.94769 24.8214L15.0008 13.5874L15.0148 13.5494C15.1569 13.1637 15.4049 12.8259 15.7303 12.5748C16.0557 12.3236 16.4453 12.1694 16.8544 12.1297C17.1375 12.1048 17.4228 12.1367 17.6934 12.2236C17.9639 12.3105 18.2144 12.4505 18.4302 12.6356C18.6599 12.8307 18.8489 13.0692 18.9861 13.3376C19.1234 13.606 19.2063 13.8988 19.23 14.1993L19.498 17.4347C19.478 17.4127 19.454 17.3907 19.43 17.3707V17.3767ZM26.2767 38.121L26.2607 38.157C26.1184 38.5425 25.8704 38.8802 25.545 39.1313C25.2196 39.3824 24.8301 39.5368 24.4211 39.5767C24.1379 39.602 23.8526 39.5703 23.582 39.4834C23.3113 39.3965 23.0608 39.2562 22.8454 39.0708C22.6158 38.8756 22.4269 38.6369 22.2897 38.3686C22.1524 38.1003 22.0694 37.8075 22.0455 37.5071L21.7716 34.2717C21.7956 34.2937 21.8155 34.3157 21.8395 34.3357C22.3754 34.7964 23.0585 35.0503 23.7652 35.0515C23.8545 35.0515 23.9445 35.0475 24.0351 35.0395C24.6011 34.9849 25.1404 34.7725 25.5915 34.4264C26.0426 34.0803 26.3874 33.6144 26.5867 33.0819L31.0139 23.2377L31.3218 26.885L26.2767 38.121Z" fill="url(#paint0_linear_2_1001)"/>
<defs>
<linearGradient id="paint0_linear_2_1001" x1="26.294" y1="-5.04034" x2="14.7239" y2="42.9084" gradientUnits="userSpaceOnUse">
<stop stop-color="#ED5089"/>
<stop offset="1" stop-color="#8565D8"/>
</linearGradient>
</defs>
</svg>
