<svg width="101" height="101" viewBox="0 0 101 101" fill="none" xmlns="http://www.w3.org/2000/svg">
<path d="M80.9542 66.8785C80.9588 66.807 80.9588 66.7352 80.9542 66.6636C80.9542 66.6636 80.9542 66.6236 80.9542 66.6036L77.5348 26.1109C77.5261 26.0652 77.5144 26.0201 77.4998 25.9759C77.4998 25.9009 77.4648 25.8359 77.4398 25.766C77.4093 25.6998 77.3707 25.6377 77.3248 25.581C77.291 25.5306 77.2543 25.4822 77.2149 25.436C77.1541 25.3778 77.0851 25.3289 77.0099 25.291C76.9821 25.265 76.952 25.2416 76.9199 25.2211H76.8699C76.7972 25.1946 76.7217 25.1761 76.645 25.1661C76.5785 25.1584 76.5114 25.1584 76.445 25.1661H76.39C76.3458 25.1764 76.3024 25.1898 76.26 25.2061C76.1872 25.2171 76.1164 25.239 76.0501 25.2711C75.9889 25.2982 75.9318 25.3335 75.8801 25.376C75.8227 25.4122 75.7691 25.454 75.7201 25.501C75.6712 25.5556 75.6292 25.6161 75.5952 25.681C75.5657 25.7173 75.5389 25.7557 75.5152 25.796L62.7675 54.1358L62.7325 54.2258C62.3733 55.1885 61.7516 56.0313 60.9378 56.6587C60.124 57.286 59.1507 57.6728 58.1283 57.7752C57.4255 57.827 56.7193 57.7378 56.0514 57.5129C55.3835 57.288 54.7673 56.9319 54.239 56.4654C53.0819 55.4779 52.3629 54.0723 52.2394 52.5561L51.8644 48.0969L48.4451 7.60424C48.3657 6.56985 48.0829 5.56131 47.6128 4.63651C47.1426 3.71171 46.4945 2.88887 45.7055 2.21521C44.9581 1.57244 44.0896 1.08565 43.1513 0.78345C42.2129 0.481252 41.2236 0.369758 40.2415 0.455526C38.8261 0.5901 37.4771 1.11986 36.3483 1.98434C35.2195 2.84883 34.3565 4.01322 33.8577 5.34464L21.085 33.6695C21.085 33.6695 21.085 33.7095 21.085 33.7295C21.0631 33.7948 21.0463 33.8616 21.035 33.9295C21.0174 34.0085 21.0057 34.0887 21 34.1694C21 34.1694 21 34.2044 21 34.2294L24.4194 74.7221C24.4297 74.7712 24.4431 74.8196 24.4594 74.8671C24.4707 74.9317 24.4875 74.9952 24.5094 75.0571C24.5399 75.1232 24.5785 75.1854 24.6243 75.242C24.6565 75.2924 24.6915 75.3408 24.7293 75.387C24.7905 75.4425 24.8576 75.4911 24.9293 75.532C24.9621 75.5614 24.9972 75.5881 25.0343 75.612H25.0643C25.1413 75.6424 25.2219 75.6626 25.3042 75.672C25.3592 75.672 25.4092 75.702 25.4642 75.702H25.5642C25.6072 75.6958 25.6492 75.684 25.6892 75.667C25.7645 75.6529 25.8382 75.6311 25.9091 75.602C25.9658 75.5716 26.0209 75.5382 26.0741 75.502C26.1308 75.4612 26.1843 75.4161 26.2341 75.367C26.2824 75.3138 26.3244 75.2551 26.359 75.192C26.3885 75.1558 26.4153 75.1173 26.439 75.0771L39.1867 46.7372L39.2417 46.6672C39.5998 45.7043 40.2204 44.8609 41.0333 44.2327C41.8462 43.6045 42.8188 43.2165 43.8409 43.1128C44.5415 43.0539 45.2469 43.1344 45.9162 43.3498C46.5855 43.5652 47.2054 43.9111 47.7402 44.3676C48.8974 45.3529 49.6166 46.757 49.7398 48.2719L52.3943 79.7662L53.5291 93.2638C53.692 95.3469 54.6756 97.2799 56.2636 98.6378C57.6052 99.7901 59.3144 100.425 61.0828 100.427C61.3027 100.427 61.5277 100.427 61.7527 100.397C63.1681 100.259 64.5164 99.7261 65.6447 98.8602C66.773 97.9944 67.6362 96.8297 68.1365 95.4984L80.8942 67.1635C80.8942 67.1635 80.8942 67.1235 80.8942 67.1035C80.9206 67.0304 80.9406 66.9551 80.9542 66.8785ZM24.2744 47.832L36.9071 19.752L36.9421 19.6721C37.2974 18.7078 37.9174 17.8633 38.7309 17.2355C39.5444 16.6077 40.5185 16.222 41.5413 16.1227C42.2492 16.0577 42.963 16.1362 43.6399 16.3535C44.3168 16.5708 44.9428 16.9225 45.4806 17.3875C46.0554 17.8748 46.5281 18.4712 46.8713 19.1422C47.2145 19.8131 47.4215 20.5454 47.4802 21.2968L48.1651 29.4053C48.1101 29.3503 48.0551 29.2953 47.9951 29.2453C47.2433 28.5984 46.369 28.1092 45.4244 27.8069C44.4797 27.5047 43.4839 27.3954 42.4961 27.4857C41.0807 27.6245 39.7324 28.157 38.6041 29.0229C37.4758 29.8888 36.6126 31.0534 36.1123 32.3848L25.0443 56.9753L24.2744 47.832ZM53.8291 71.4627C53.8891 71.5127 53.9391 71.5727 53.9991 71.6227C55.3388 72.7746 57.0463 73.4094 58.8132 73.4124C59.0381 73.4124 59.2631 73.4124 59.4881 73.3774C60.9029 73.243 62.2515 72.7133 63.3795 71.8487C64.5075 70.9841 65.3695 69.8196 65.8669 68.4883L76.9349 43.8777L77.7348 53.016L65.0771 81.101L65.0421 81.191C64.6836 82.1546 64.0622 82.9984 63.2484 83.6267C62.4345 84.255 61.4609 84.6425 60.4379 84.7453C59.7308 84.8085 59.0183 84.7291 58.3425 84.5119C57.6667 84.2946 57.0414 83.9439 56.5036 83.4806C55.3468 82.4949 54.6278 81.091 54.504 79.5763L53.8291 71.4627ZM52.8593 58.1151C54.1995 59.2656 55.9071 59.8986 57.6734 59.8998C57.8967 59.8998 58.1216 59.8898 58.3483 59.8698C59.7644 59.7313 61.1135 59.199 62.2427 58.3331C63.3718 57.4672 64.236 56.3024 64.7371 54.9707L75.8001 30.3651L76.575 39.5085L63.9373 67.5934L63.9023 67.6834C63.5438 68.647 62.9224 69.4909 62.1086 70.1192C61.2948 70.7474 60.3211 71.135 59.2981 71.2378C58.591 71.3009 57.8785 71.2216 57.2027 71.0043C56.5269 70.787 55.9016 70.4363 55.3638 69.973C54.2058 68.9861 53.4867 67.5802 53.3642 66.0637L52.6893 57.9552C52.7393 58.0051 52.7993 58.0651 52.8593 58.1151ZM35.7673 6.23948L35.8023 6.1495C36.1576 5.18526 36.7776 4.34076 37.5911 3.71293C38.4046 3.08511 39.3787 2.69942 40.4015 2.60014C41.1089 2.53702 41.8219 2.61595 42.4983 2.83229C43.1748 3.04863 43.8013 3.39801 44.3408 3.85991C44.9154 4.3486 45.3878 4.94594 45.7309 5.61766C46.0741 6.28937 46.2812 7.02224 46.3404 7.77421L47.0253 15.8777L46.8603 15.7228C46.1086 15.0756 45.2344 14.5863 44.2897 14.284C43.345 13.9817 42.3491 13.8725 41.3613 13.9631C39.9455 14.1008 38.5967 14.6329 37.4682 15.4989C36.3397 16.365 35.4768 17.5302 34.9775 18.8622L23.9045 43.4678L23.1346 34.3244L35.7673 6.23948ZM49.1199 42.7329C48.3672 42.0874 47.4928 41.5992 46.5484 41.297C45.6039 40.9947 44.6086 40.8847 43.6209 40.9732C42.2077 41.1127 40.8615 41.6443 39.7344 42.5082C38.6072 43.3721 37.744 44.5339 37.2421 45.8623L26.1841 70.4629L25.4142 61.3445L38.0469 33.2596L38.0819 33.1646C38.4372 32.2004 39.0572 31.3559 39.8707 30.7281C40.6842 30.1002 41.6583 29.7145 42.6811 29.6153C43.3888 29.5531 44.1019 29.633 44.7784 29.8502C45.4548 30.0674 46.0811 30.4175 46.6204 30.88C47.1948 31.3678 47.6672 31.9642 48.0103 32.6351C48.3535 33.306 48.5607 34.0381 48.62 34.7893L49.2899 42.8779C49.2399 42.8229 49.1799 42.7679 49.1199 42.7179V42.7329ZM66.2368 94.5935L66.1969 94.6835C65.8411 95.6474 65.2209 96.4916 64.4075 97.1194C63.5941 97.7471 62.6203 98.133 61.5977 98.2329C60.8899 98.2962 60.1765 98.2169 59.4999 97.9996C58.8233 97.7824 58.1971 97.4316 57.6584 96.9681C57.0844 96.48 56.6123 95.8835 56.2692 95.2127C55.926 94.5418 55.7186 93.8099 55.6588 93.0588L54.9739 84.9703C55.0339 85.0253 55.0839 85.0803 55.1438 85.1303C56.4836 86.2821 58.1911 86.9169 59.958 86.9199C60.1813 86.9199 60.4062 86.9099 60.6329 86.8899C62.0478 86.7535 63.3959 86.2223 64.5237 85.3571C65.6515 84.4918 66.5135 83.3271 67.0117 81.9958L78.0797 57.3853L78.8496 66.5036L66.2368 94.5935Z" fill="url(#paint0_linear_5_432)"/>
<defs>
<linearGradient id="paint0_linear_5_432" x1="21" y1="5.91529" x2="99.2088" y2="53.7844" gradientUnits="userSpaceOnUse">
<stop stop-color="#DC5497"/>
<stop offset="1" stop-color="#9063D1"/>
</linearGradient>
</defs>
</svg>
