<svg width="24" height="24" viewBox="0 0 24 24" fill="none" xmlns="http://www.w3.org/2000/svg">
    <path d="M17 12.5C17.2761 12.5 17.5 12.2762 17.5 12C17.5 11.7239 17.2761 11.5 17 11.5V12.5ZM7 11.5C6.72386 11.5 6.5 11.7239 6.5 12C6.5 12.2762 6.72386 12.5 7 12.5L7 11.5ZM12.5 7C12.5 6.72386 12.2761 6.5 12 6.5C11.7239 6.5 11.5 6.72386 11.5 7L12.5 7ZM11.5 17C11.5 17.2761 11.7239 17.5 12 17.5C12.2761 17.5 12.5 17.2761 12.5 17H11.5ZM17 11.5H12V12.5H17V11.5ZM12 11.5L7 11.5L7 12.5L12 12.5V11.5ZM11.5 7L11.5 12H12.5L12.5 7L11.5 7ZM11.5 12L11.5 17H12.5L12.5 12H11.5Z" fill="white"/>
</svg>
