<svg width="24" height="24" viewBox="0 0 24 24" fill="none" xmlns="http://www.w3.org/2000/svg">
<path d="M17.6508 10.6163C18.0701 10.2569 18.1187 9.62562 17.7593 9.2063C17.3998 8.78697 16.7685 8.73841 16.3492 9.09783L17.6508 10.6163ZM12 14.1428L11.3492 14.9021C11.7237 15.223 12.2763 15.223 12.6508 14.9021L12 14.1428ZM7.65079 9.09783C7.23147 8.73841 6.60017 8.78697 6.24074 9.20629C5.88132 9.62562 5.92988 10.2569 6.34921 10.6163L7.65079 9.09783ZM16.3492 9.09783L11.3492 13.3835L12.6508 14.9021L17.6508 10.6163L16.3492 9.09783ZM12.6508 13.3835L7.65079 9.09783L6.34921 10.6163L11.3492 14.9021L12.6508 13.3835Z" fill="#6F6F74"/>
</svg>
